<svg viewBox="0 0 40 41" fill="none" xmlns="http://www.w3.org/2000/svg">
<path fill-rule="evenodd" clip-rule="evenodd" d="M27.7219 11.8645C24.4357 15.139 22.1545 17.4577 19.8758 19.7738L19.8758 19.7738L19.8755 19.7742C17.5251 22.1632 15.1774 24.5494 11.7274 27.9842C11.3192 28.3906 11.3129 29.046 11.7134 29.4482C12.1139 29.8503 12.7695 29.8469 13.1777 29.4405C16.6356 25.9979 18.9896 23.6053 21.3407 21.2155L21.341 21.2152L21.3413 21.2149C23.6204 18.8983 25.897 16.5843 29.1787 13.3144L29.1787 28.5681C29.1787 29.1018 29.6113 29.5345 30.145 29.5345C30.6787 29.5345 31.1113 29.1018 31.1113 28.5681L31.1113 11.1475C31.1113 10.4761 30.5671 9.9318 29.8957 9.9318L12.475 9.93179C11.9413 9.93179 11.5087 10.3644 11.5087 10.8981C11.5087 11.4318 11.9413 11.8644 12.475 11.8644L27.7219 11.8645Z" fill="white"/>
</svg>
