<svg viewBox="0 0 275 199" fill="none" xmlns="http://www.w3.org/2000/svg">
<rect x="-0.332785" y="0.780548" width="61.2275" height="61.2275" rx="15.8283" transform="matrix(-0.927777 0.373136 0.373136 0.927777 173.484 0.180548)" fill="url(#paint0_linear_562_2721)" stroke="url(#paint1_linear_562_2721)" stroke-width="1.2"/>
<path fill-rule="evenodd" clip-rule="evenodd" d="M151.827 43.6571L151.739 29.884C151.735 29.3481 152.407 29.0833 152.77 29.4779L162.032 39.553L166.376 28.9715C166.59 28.4489 167.353 28.4885 167.495 29.0297L171.973 46.1364L149.44 55.1987L140.846 39.7908C140.572 39.2988 141.104 38.7398 141.621 38.9769L151.827 43.6571Z" fill="#5B27F7"/>
<rect x="-0.734659" y="0.42459" width="61.2275" height="61.2275" rx="15.8283" transform="matrix(-0.966041 -0.25839 -0.25839 0.966041 225.322 92.9711)" fill="url(#paint2_linear_562_2721)" stroke="url(#paint3_linear_562_2721)" stroke-width="1.2"/>
<path fill-rule="evenodd" clip-rule="evenodd" d="M182.385 114.507L190.581 103.438C190.9 103.007 191.596 103.199 191.65 103.732L193.01 117.349L202.836 111.493C203.321 111.204 203.908 111.694 203.697 112.211L197.011 128.582L173.549 122.306L175.923 104.824C175.998 104.266 176.76 104.138 177.031 104.638L182.385 114.507Z" fill="white"/>
<rect x="-0.652852" y="0.542018" width="61.2275" height="61.2275" rx="15.8283" transform="matrix(-0.995726 -0.0923617 -0.0923617 0.995726 255.599 159.313)" fill="url(#paint4_linear_562_2721)" stroke="url(#paint5_linear_562_2721)" stroke-width="1.2"/>
<path fill-rule="evenodd" clip-rule="evenodd" d="M216.8 187.868L223.019 175.579C223.261 175.1 223.98 175.172 224.122 175.689L227.752 188.884L236.453 181.46C236.883 181.093 237.544 181.477 237.422 182.023L233.583 199.284L209.4 197.041L208.802 179.409C208.783 178.846 209.512 178.592 209.863 179.039L216.8 187.868Z" fill="white"/>
<rect x="-0.766555" y="-0.363859" width="61.2275" height="61.2275" rx="15.8283" transform="matrix(-0.33558 -0.942012 -0.942012 0.33558 147.88 122.735)" fill="url(#paint6_linear_562_2721)" stroke="url(#paint7_linear_562_2721)" stroke-width="1.2"/>
<path fill-rule="evenodd" clip-rule="evenodd" d="M106.531 99.3734L120.297 99.8382C120.832 99.8563 121.07 100.539 120.661 100.885L110.222 109.735L120.621 114.5C121.134 114.735 121.064 115.497 120.518 115.616L103.245 119.403L95.0948 96.5248L110.835 88.5569C111.338 88.3025 111.875 88.8566 111.618 89.3637L106.531 99.3734Z" fill="white"/>
<rect x="-0.414199" y="0.740567" width="61.2275" height="61.2275" rx="15.8283" transform="matrix(-0.962305 0.271974 0.271974 0.962305 157.539 144.71)" fill="url(#paint8_linear_562_2721)" stroke="url(#paint9_linear_562_2721)" stroke-width="1.2"/>
<path fill-rule="evenodd" clip-rule="evenodd" d="M131.431 185.566L132.813 171.862C132.867 171.329 133.564 171.137 133.882 171.568L142.015 182.574L147.464 172.517C147.733 172.02 148.488 172.141 148.571 172.694L151.197 190.181L127.825 196.787L120.926 180.549C120.705 180.031 121.294 179.532 121.783 179.823L131.431 185.566Z" fill="white"/>
<rect width="62.4275" height="62.4275" rx="16.4283" transform="matrix(-0.991838 -0.127505 -0.127505 0.991838 97.8776 174.104)" fill="#202021"/>
<path fill-rule="evenodd" clip-rule="evenodd" d="M56.8419 201.168L63.4914 189.106C63.7501 188.636 64.466 188.734 64.5898 189.255L67.751 202.57L76.7097 195.458C77.1521 195.107 77.7989 195.514 77.6582 196.055L73.2109 213.17L49.1221 210.073L49.1481 192.431C49.1489 191.868 49.8863 191.64 50.2216 192.099L56.8419 201.168Z" fill="white"/>
<rect x="-0.50908" y="0.67885" width="61.2275" height="61.2275" rx="15.8283" transform="matrix(-0.989942 0.141475 0.141475 0.989942 63.6181 94.1492)" fill="url(#paint10_linear_562_2721)" stroke="url(#paint11_linear_562_2721)" stroke-width="1.2"/>
<path fill-rule="evenodd" clip-rule="evenodd" d="M32.3905 131.093L35.5844 117.695C35.7087 117.173 36.4246 117.076 36.6829 117.546L43.2787 129.536L50.0176 120.294C50.3504 119.837 51.0824 120.058 51.0911 120.617L51.3665 138.298L27.3237 141.734L22.6463 124.723C22.497 124.179 23.1469 123.763 23.5926 124.117L32.3905 131.093Z" fill="white"/>
<rect width="290" height="188.907" transform="matrix(-0.999546 0.0301155 0.0301155 0.999546 274.8 15)" fill="url(#paint12_linear_562_2721)"/>
<defs>
<linearGradient id="paint0_linear_562_2721" x1="36.7765" y1="-3.47349" x2="16.2298" y2="80.7781" gradientUnits="userSpaceOnUse">
<stop stop-color="#202021"/>
<stop offset="1" stop-color="#070707"/>
</linearGradient>
<linearGradient id="paint1_linear_562_2721" x1="15.9104" y1="-8.80991" x2="64.5702" y2="26.1353" gradientUnits="userSpaceOnUse">
<stop stop-color="#2C2F31"/>
<stop offset="0.64083" stop-color="#353739" stop-opacity="0"/>
<stop offset="1" stop-color="#353739"/>
</linearGradient>
<linearGradient id="paint2_linear_562_2721" x1="36.7765" y1="-3.47349" x2="16.2298" y2="80.7781" gradientUnits="userSpaceOnUse">
<stop stop-color="#202021"/>
<stop offset="1" stop-color="#070707"/>
</linearGradient>
<linearGradient id="paint3_linear_562_2721" x1="15.9104" y1="-8.80991" x2="64.5702" y2="26.1353" gradientUnits="userSpaceOnUse">
<stop stop-color="#2C2F31"/>
<stop offset="0.64083" stop-color="#353739" stop-opacity="0"/>
<stop offset="1" stop-color="#353739"/>
</linearGradient>
<linearGradient id="paint4_linear_562_2721" x1="36.7765" y1="-3.47349" x2="16.2298" y2="80.7781" gradientUnits="userSpaceOnUse">
<stop stop-color="#202021"/>
<stop offset="1" stop-color="#070707"/>
</linearGradient>
<linearGradient id="paint5_linear_562_2721" x1="15.9104" y1="-8.80991" x2="64.5702" y2="26.1353" gradientUnits="userSpaceOnUse">
<stop stop-color="#2C2F31"/>
<stop offset="0.64083" stop-color="#353739" stop-opacity="0"/>
<stop offset="1" stop-color="#353739"/>
</linearGradient>
<linearGradient id="paint6_linear_562_2721" x1="36.7765" y1="-3.47349" x2="16.2298" y2="80.7781" gradientUnits="userSpaceOnUse">
<stop stop-color="#202021"/>
<stop offset="1" stop-color="#070707"/>
</linearGradient>
<linearGradient id="paint7_linear_562_2721" x1="15.9104" y1="-8.80991" x2="64.5702" y2="26.1353" gradientUnits="userSpaceOnUse">
<stop stop-color="#2C2F31"/>
<stop offset="0.64083" stop-color="#353739" stop-opacity="0"/>
<stop offset="1" stop-color="#353739"/>
</linearGradient>
<linearGradient id="paint8_linear_562_2721" x1="36.7765" y1="-3.47349" x2="16.2298" y2="80.7781" gradientUnits="userSpaceOnUse">
<stop stop-color="#202021"/>
<stop offset="1" stop-color="#070707"/>
</linearGradient>
<linearGradient id="paint9_linear_562_2721" x1="15.9104" y1="-8.80991" x2="64.5702" y2="26.1353" gradientUnits="userSpaceOnUse">
<stop stop-color="#2C2F31"/>
<stop offset="0.64083" stop-color="#353739" stop-opacity="0"/>
<stop offset="1" stop-color="#353739"/>
</linearGradient>
<linearGradient id="paint10_linear_562_2721" x1="36.7765" y1="-3.47349" x2="16.2298" y2="80.7781" gradientUnits="userSpaceOnUse">
<stop stop-color="#202021"/>
<stop offset="1" stop-color="#070707"/>
</linearGradient>
<linearGradient id="paint11_linear_562_2721" x1="15.9104" y1="-8.80991" x2="64.5702" y2="26.1353" gradientUnits="userSpaceOnUse">
<stop stop-color="#2C2F31"/>
<stop offset="0.64083" stop-color="#353739" stop-opacity="0"/>
<stop offset="1" stop-color="#353739"/>
</linearGradient>
<linearGradient id="paint12_linear_562_2721" x1="145" y1="87.6695" x2="145" y2="188.907" gradientUnits="userSpaceOnUse">
<stop stop-color="#060606" stop-opacity="0"/>
<stop offset="1" stop-color="#060606"/>
</linearGradient>
</defs>
</svg>
