<svg width="34" height="38" viewBox="0 0 56 64" fill="none" xmlns="http://www.w3.org/2000/svg">
<path fill-rule="evenodd" clip-rule="evenodd" d="M31.9697 4.2883C32.8041 1.55126 35.6993 0.00885373 38.4363 0.843238L51.5017 4.82622C54.2388 5.6606 55.7812 8.55581 54.9468 11.2928L50.9638 24.3583C50.1294 27.0953 47.2342 28.6377 44.4972 27.8033L31.4318 23.8203C28.6947 22.986 27.1523 20.0907 27.9867 17.3537L31.9697 4.2883ZM16 35.9999C16 40.4182 12.4183 43.9999 8 43.9999C3.58172 43.9999 0 40.4182 0 35.9999C0 31.5817 3.58172 27.9999 8 27.9999C12.4183 27.9999 16 31.5817 16 35.9999ZM33.6566 36.2723C31.3076 34.6819 28.1987 36.2356 28.0605 39.069L27.0835 59.1049C26.9453 61.9383 29.8815 63.9263 32.3686 62.6834L49.9563 53.8939C52.4434 52.6509 52.6161 49.1092 50.2672 47.5188L33.6566 36.2723Z" fill="#5C28F7"/>
</svg>
