<svg width="33" height="32" viewBox="0 0 33 32" fill="none" xmlns="http://www.w3.org/2000/svg">
<g clip-path="url(#clip0_8933_33094)">
<path d="M16.7402 0C7.90375 0 0.740234 7.16352 0.740234 16C0.740234 23.5034 5.90631 29.7997 12.8753 31.529V20.8896H9.57607V16H12.8753V13.8931C12.8753 8.44736 15.3399 5.9232 20.6865 5.9232C21.7002 5.9232 23.4494 6.12224 24.1649 6.32064V10.7526C23.7873 10.713 23.1313 10.6931 22.3166 10.6931C19.6932 10.6931 18.6794 11.687 18.6794 14.2707V16H23.9057L23.0078 20.8896H18.6794V31.8829C26.602 30.9261 32.7409 24.1805 32.7409 16C32.7402 7.16352 25.5767 0 16.7402 0Z" fill="white"/>
</g>
<defs>
<clipPath id="clip0_8933_33094">
<rect width="32" height="32" fill="white" transform="translate(0.740234)"/>
</clipPath>
</defs>
</svg>
