<svg width="33" height="32" viewBox="0 0 33 32" fill="none" xmlns="http://www.w3.org/2000/svg">
<g clip-path="url(#clip0_8933_33097)">
<path d="M16.7402 2.88125C21.0152 2.88125 21.5215 2.9 23.2027 2.975C24.7652 3.04375 25.609 3.30625 26.1715 3.525C26.9152 3.8125 27.4527 4.1625 28.009 4.71875C28.5715 5.28125 28.9152 5.8125 29.2027 6.55625C29.4215 7.11875 29.684 7.96875 29.7527 9.525C29.8277 11.2125 29.8465 11.7188 29.8465 15.9875C29.8465 20.2625 29.8277 20.7688 29.7527 22.45C29.684 24.0125 29.4215 24.8563 29.2027 25.4188C28.9152 26.1625 28.5652 26.7 28.009 27.2563C27.4465 27.8188 26.9152 28.1625 26.1715 28.45C25.609 28.6688 24.759 28.9313 23.2027 29C21.5152 29.075 21.009 29.0938 16.7402 29.0938C12.4652 29.0938 11.959 29.075 10.2777 29C8.71524 28.9313 7.87149 28.6688 7.30898 28.45C6.56524 28.1625 6.02773 27.8125 5.47148 27.2563C4.90898 26.6938 4.56523 26.1625 4.27773 25.4188C4.05898 24.8563 3.79648 24.0063 3.72773 22.45C3.65273 20.7625 3.63398 20.2563 3.63398 15.9875C3.63398 11.7125 3.65273 11.2063 3.72773 9.525C3.79648 7.9625 4.05898 7.11875 4.27773 6.55625C4.56523 5.8125 4.91523 5.275 5.47148 4.71875C6.03398 4.15625 6.56524 3.8125 7.30898 3.525C7.87149 3.30625 8.72149 3.04375 10.2777 2.975C11.959 2.9 12.4652 2.88125 16.7402 2.88125ZM16.7402 0C12.3965 0 11.8527 0.01875 10.1465 0.09375C8.44649 0.16875 7.27773 0.44375 6.26523 0.8375C5.20898 1.25 4.31523 1.79375 3.42773 2.6875C2.53398 3.575 1.99023 4.46875 1.57773 5.51875C1.18398 6.5375 0.908984 7.7 0.833984 9.4C0.758984 11.1125 0.740234 11.6562 0.740234 16C0.740234 20.3438 0.758984 20.8875 0.833984 22.5938C0.908984 24.2938 1.18398 25.4625 1.57773 26.475C1.99023 27.5313 2.53398 28.425 3.42773 29.3125C4.31523 30.2 5.20898 30.75 6.25899 31.1562C7.27774 31.55 8.44023 31.825 10.1402 31.9C11.8465 31.975 12.3902 31.9937 16.734 31.9937C21.0777 31.9937 21.6215 31.975 23.3277 31.9C25.0277 31.825 26.1965 31.55 27.209 31.1562C28.259 30.75 29.1527 30.2 30.0402 29.3125C30.9277 28.425 31.4777 27.5313 31.884 26.4813C32.2777 25.4625 32.5527 24.3 32.6277 22.6C32.7027 20.8938 32.7215 20.35 32.7215 16.0063C32.7215 11.6625 32.7027 11.1188 32.6277 9.4125C32.5527 7.7125 32.2777 6.54375 31.884 5.53125C31.4902 4.46875 30.9465 3.575 30.0527 2.6875C29.1652 1.8 28.2715 1.25 27.2215 0.84375C26.2027 0.45 25.0402 0.175 23.3402 0.1C21.6277 0.01875 21.084 0 16.7402 0Z" fill="white"/>
<path d="M16.7402 7.78125C12.2027 7.78125 8.52148 11.4625 8.52148 16C8.52148 20.5375 12.2027 24.2188 16.7402 24.2188C21.2777 24.2188 24.959 20.5375 24.959 16C24.959 11.4625 21.2777 7.78125 16.7402 7.78125ZM16.7402 21.3312C13.7965 21.3312 11.409 18.9438 11.409 16C11.409 13.0563 13.7965 10.6687 16.7402 10.6687C19.684 10.6687 22.0715 13.0563 22.0715 16C22.0715 18.9438 19.684 21.3312 16.7402 21.3312Z" fill="white"/>
<path d="M27.2027 7.45586C27.2027 8.51836 26.3402 9.37461 25.284 9.37461C24.2215 9.37461 23.3652 8.51211 23.3652 7.45586C23.3652 6.39336 24.2277 5.53711 25.284 5.53711C26.3402 5.53711 27.2027 6.39961 27.2027 7.45586Z" fill="white"/>
</g>
<defs>
<clipPath id="clip0_8933_33097">
<rect width="32" height="32" fill="white" transform="translate(0.740234)"/>
</clipPath>
</defs>
</svg>
