<?xml version="1.0" encoding="utf-8"?>
<svg version="1.1" id="Layer_1" x="0px" y="0px"
	 viewBox="0 0 133.3 27.4" style="enable-background:new 0 0 133.3 27.4;" xml:space="preserve">
<style type="text/css">
	.st0{fill:currentColor;}
</style>
<path class="st0" d="M0,14.4h4.3c0.2,2.1,1.6,3.4,3.8,3.4c2,0,3.4-0.8,3.4-2.4c0-4.1-10.9-0.9-10.9-9.1c0-3.4,3-5.9,7.3-5.9
	c4.5,0,7.6,2.6,7.7,6.5h-4.3c-0.2-1.6-1.4-2.7-3.4-2.7C6.1,4.3,5,5.1,5,6.3c0,4.3,11.1,0.8,11.1,9c0,3.9-3.2,6.3-7.9,6.3
	C3.4,21.6,0.2,18.8,0,14.4z"/>
<path class="st0" d="M30.7,11.8v9.6h-4.2v-2.1c-0.5,1.4-2.2,2.3-4.3,2.3c-3,0-5-1.9-5-4.5c0-2.9,2.2-4.7,5.5-4.7h2.6
	c0.8,0,1.1-0.5,1.1-1.1c0-1.2-1-2.1-2.7-2.1c-1.8,0-2.8,1.1-2.8,2.4h-3.7c0.2-3,2.6-5.4,6.8-5.4C27.9,6.2,30.7,8.4,30.7,11.8z
	 M26.5,15.3v-0.2h-3.1c-1.3,0-2.2,0.8-2.2,1.9c0,1,0.8,1.7,2,1.7C25.3,18.6,26.5,17.2,26.5,15.3z"/>
<path class="st0" d="M34.2,9.9h-2.9V6.5h2.9V5.2C34.2,2,36.5,0,39.9,0h2.9v3.4h-2.3c-1.2,0-2,0.8-2,2v1.1h4.3v3.4h-4.3v11.5h-4.2
	V9.9z"/>
<path class="st0" d="M57.8,16.3c-0.6,3.2-3.5,5.3-7.2,5.3c-5.1,0-7.8-4-7.8-7.7c0-3.8,2.3-7.7,7.5-7.7c5.4,0,7.5,3.9,7.5,7.3
	c0,0.6,0,1-0.1,1.3H46.8c0.3,2.1,1.7,3.4,3.8,3.4c1.7,0,2.8-0.7,3.1-1.9H57.8z M46.8,12.3h6.7c-0.1-1.7-1.3-3-3.3-3
	C48.3,9.3,47.2,10.2,46.8,12.3z"/>
<path class="st0" d="M58.7,16.4h3.6c0.2,1.3,1.2,2.2,2.8,2.2c1.3,0,2.2-0.6,2.2-1.5c0-3-8.2-0.1-8.2-6.3c0-2.6,2.3-4.5,5.4-4.5
	c3.6,0,6.1,1.9,6.3,4.9h-3.6c-0.2-1.3-1.4-2-2.5-2c-1.2,0-2,0.5-2,1.5c0,3,8.3-0.4,8.3,6.3c0,2.8-2.3,4.7-5.9,4.7
	C61.4,21.6,58.8,19.6,58.7,16.4z"/>
<path class="st0" d="M71.8,6.5H76v1.6c0.9-1.2,2.4-1.9,4.4-1.9c4.2,0,7,3,7,7.7c0,4.6-3,7.7-7.3,7.7c-1.7,0-3.2-0.6-4-1.6v7.4h-4.2
	V6.5z M83.2,13.9c0-2.5-1.5-4.2-3.7-4.2c-2.3,0-3.7,1.7-3.7,4.2c0,2.5,1.5,4.1,3.7,4.1C81.7,18.1,83.2,16.4,83.2,13.9z"/>
<path class="st0" d="M101.4,11.8v9.6h-4.2v-2.1c-0.5,1.4-2.2,2.3-4.3,2.3c-3,0-5-1.9-5-4.5c0-2.9,2.2-4.7,5.5-4.7h2.6
	c0.8,0,1.1-0.5,1.1-1.1c0-1.2-1-2.1-2.7-2.1c-1.8,0-2.8,1.1-2.8,2.4H88c0.2-3,2.6-5.4,6.8-5.4C98.6,6.2,101.4,8.4,101.4,11.8z
	 M97.2,15.3v-0.2h-3.1c-1.3,0-2.2,0.8-2.2,1.9c0,1,0.8,1.7,2,1.7C96.1,18.6,97.2,17.2,97.2,15.3z"/>
<path class="st0" d="M102.2,13.9c0-4.4,3.1-7.7,7.8-7.7c4,0,7.1,2.4,7.4,5.8h-4.2c-0.2-1.3-1.5-2.3-3.1-2.3c-2.3,0-3.6,1.7-3.6,4.2
	s1.4,4.1,3.6,4.1c1.5,0,2.8-0.9,3.1-2.2h4.3c-0.5,3.3-3.6,5.8-7.5,5.8C105.3,21.6,102.2,18.3,102.2,13.9z"/>
<path class="st0" d="M133.3,16.3c-0.6,3.2-3.5,5.3-7.2,5.3c-5.1,0-7.8-4-7.8-7.7c0-3.8,2.3-7.7,7.5-7.7c5.4,0,7.5,3.9,7.5,7.3
	c0,0.6,0,1-0.1,1.3h-10.9c0.3,2.1,1.7,3.4,3.8,3.4c1.7,0,2.8-0.7,3.1-1.9H133.3z M122.4,12.3h6.7c-0.1-1.7-1.3-3-3.3-3
	C123.9,9.3,122.7,10.2,122.4,12.3z"/>
</svg>
