<svg viewBox="0 0 88 88" fill="none" xmlns="http://www.w3.org/2000/svg">
<rect x="0.5" y="0.5" width="87" height="87" rx="43.5" fill="url(#paint0_linear_9107_29029)" fill-opacity="0.22"/>
<rect x="0.5" y="0.5" width="87" height="87" rx="43.5" stroke="url(#paint1_linear_9107_29029)"/>
<path fill-rule="evenodd" clip-rule="evenodd" d="M37 32C36.4477 32 36 32.4477 36 33V55C36 55.5523 36.4477 56 37 56H41C41.5523 56 42 55.5523 42 55V33C42 32.4477 41.5523 32 41 32H37ZM48 32C47.4477 32 47 32.4477 47 33V55C47 55.5523 47.4477 56 48 56H52C52.5523 56 53 55.5523 53 55V33C53 32.4477 52.5523 32 52 32H48Z" fill="white"/>
<defs>
<linearGradient id="paint0_linear_9107_29029" x1="44" y1="0" x2="44" y2="88" gradientUnits="userSpaceOnUse">
<stop stop-color="white"/>
<stop offset="1" stop-color="white" stop-opacity="0.49"/>
</linearGradient>
<linearGradient id="paint1_linear_9107_29029" x1="44" y1="0" x2="44" y2="88" gradientUnits="userSpaceOnUse">
<stop stop-color="white"/>
<stop offset="1" stop-opacity="0"/>
</linearGradient>
</defs>
</svg>
