<svg viewBox="0 0 275 234" fill="none" xmlns="http://www.w3.org/2000/svg">
<g clip-path="url(#clip0_561_1140)">
<mask id="path-2-inside-1_561_1140" fill="white">
<path d="M157.597 66.4164C145.001 64.4129 132.093 66.4336 120.712 72.191C109.331 77.9484 100.056 87.1491 94.2072 98.4834C94.1285 98.6264 94.0559 98.7703 93.9832 98.9142C93.9106 99.0581 93.837 99.2081 93.7583 99.3511L93.5393 99.7889C93.4606 99.9318 93.387 100.082 93.3144 100.226C93.2417 100.37 93.1681 100.52 93.0894 100.663L92.8705 101.1C92.7918 101.243 92.7182 101.393 92.6456 101.537C92.5729 101.681 92.4993 101.831 92.4206 101.974L92.2017 102.412C92.123 102.555 92.0504 102.699 91.9777 102.843C91.9051 102.987 91.8315 103.137 91.7528 103.279L91.5339 103.717C91.4552 103.86 91.3816 104.01 91.3089 104.154C91.2363 104.298 91.1627 104.448 91.0839 104.591L90.8651 105.029C90.7863 105.172 90.7137 105.316 90.6401 105.466C90.5665 105.616 90.4948 105.753 90.4151 105.902L90.1962 106.34C90.1175 106.483 90.0449 106.627 89.9722 106.771C89.8996 106.915 89.826 107.065 89.7473 107.208L89.5284 107.646C89.4487 107.795 89.3761 107.939 89.3034 108.083L89.0845 108.52C89.0058 108.663 88.9322 108.813 88.8596 108.957C88.7869 109.101 88.7073 109.25 88.6346 109.394L88.4157 109.832C88.337 109.975 88.2644 110.119 88.1908 110.269C88.1171 110.419 88.0455 110.556 87.9668 110.699L87.7479 111.137C87.6692 111.28 87.5956 111.43 87.5229 111.574C87.4503 111.718 87.3767 111.868 87.298 112.011L87.0791 112.449C87.0003 112.592 86.9267 112.742 86.8541 112.886C86.7814 113.029 86.7088 113.173 86.6291 113.322L86.4102 113.76C86.3315 113.903 86.2589 114.047 86.1853 114.197C86.1117 114.347 86.04 114.485 85.9613 114.628L85.7424 115.066C85.6637 115.209 85.5901 115.359 85.5174 115.502C85.4448 115.646 85.3712 115.796 85.2925 115.939L85.0736 116.377C84.9949 116.52 84.9213 116.67 84.8486 116.814C84.776 116.958 84.7033 117.102 84.6237 117.251L84.4048 117.689C84.326 117.832 84.2534 117.975 84.1808 118.119C84.1081 118.263 84.0345 118.413 83.9558 118.556L83.7369 118.994C83.6582 119.137 83.5846 119.287 83.5119 119.431C83.4393 119.575 83.3657 119.725 83.287 119.868L83.0681 120.306C82.9894 120.448 82.9167 120.592 82.8431 120.742C82.7695 120.892 82.6978 121.03 82.6182 121.179L82.4002 121.611C82.3206 121.76 82.2479 121.904 82.1753 122.048C82.1026 122.192 82.029 122.342 81.9503 122.485L81.7314 122.922C81.6527 123.065 81.5791 123.215 81.5065 123.359C81.4338 123.503 81.3602 123.653 81.2815 123.796L81.0626 124.234C80.9839 124.377 80.9113 124.521 80.8377 124.671C80.764 124.821 80.6924 124.959 80.6127 125.108L80.3948 125.539C80.3151 125.688 80.2424 125.832 80.1698 125.976L79.9509 126.414C79.8722 126.557 79.7986 126.707 79.7259 126.851C79.6533 126.995 79.5797 127.145 79.501 127.288L79.2821 127.725C79.2034 127.868 79.1298 128.018 79.0571 128.162C78.8271 128.592 78.6082 129.03 78.3944 129.475C78.3237 129.607 78.253 129.738 78.1883 129.871C78.1237 130.004 78.037 130.158 77.9694 130.309C77.9019 130.46 77.8181 130.596 77.7454 130.74C77.6728 130.884 77.5941 131.026 77.5275 131.171C77.4609 131.316 77.3752 131.464 77.3025 131.608C77.2299 131.752 77.1512 131.895 77.0785 132.039L76.8596 132.477C76.787 132.621 76.7083 132.764 76.6356 132.908L76.4167 133.345L76.1927 133.776L75.9739 134.214C75.9012 134.358 75.8225 134.501 75.7499 134.645L75.531 135.083C75.4583 135.226 75.3796 135.369 75.307 135.513L75.0881 135.951C75.0154 136.095 74.9367 136.238 74.8641 136.382L74.6452 136.82L74.4212 137.25C74.3485 137.394 74.2698 137.537 74.2023 137.688L73.9783 138.119C73.9057 138.263 73.8269 138.406 73.7594 138.557L73.5354 138.988C73.4628 139.132 73.3841 139.275 73.3165 139.425C73.249 139.576 73.1652 139.712 73.0925 139.856C73.0199 140 72.9412 140.143 72.8676 140.293L72.6496 140.725C72.577 140.869 72.4983 141.012 72.4256 141.156L72.2067 141.593C72.1341 141.737 72.0554 141.88 71.9827 142.024L71.7638 142.462L71.5399 142.893L71.321 143.331L71.097 143.761L70.8781 144.199L70.6541 144.63C70.5805 144.78 70.5027 144.917 70.4352 145.068C70.3676 145.219 70.2838 145.355 70.2112 145.498C70.1385 145.642 70.0598 145.785 69.9923 145.936C69.9247 146.087 69.8409 146.223 69.7683 146.367C69.6956 146.511 69.6169 146.654 69.5494 146.805C69.4818 146.956 69.398 147.092 69.3254 147.236C69.2528 147.38 69.174 147.523 69.1065 147.673C69.039 147.824 68.9552 147.96 68.8825 148.104C68.8099 148.248 68.7312 148.391 68.6576 148.541L68.4396 148.973C68.367 149.117 68.2883 149.26 68.2147 149.41L67.9967 149.841L67.7727 150.272L67.5538 150.71C67.4812 150.854 67.4025 150.997 67.3298 151.141L67.1109 151.579C67.0383 151.722 66.9596 151.865 66.887 152.009L66.6681 152.447C66.5954 152.591 66.5167 152.734 66.4441 152.878L66.2252 153.316L66.0012 153.746C65.9276 153.896 65.8489 154.039 65.7823 154.184L65.5583 154.615C65.4856 154.759 65.4069 154.902 65.3394 155.053L65.1154 155.484C65.0427 155.628 64.964 155.771 64.8965 155.921C64.829 156.072 64.7451 156.208 64.6725 156.352C64.5999 156.496 64.5212 156.639 64.4475 156.789L64.2296 157.221C64.157 157.365 64.0783 157.508 64.0046 157.658L63.7867 158.089C63.7141 158.233 63.6354 158.376 63.5618 158.526L63.3438 158.958C63.2712 159.102 63.1925 159.245 63.1189 159.395L62.9009 159.827L62.6769 160.257L62.458 160.695L62.2341 161.126L62.0152 161.564L61.7912 161.994C61.7176 162.144 61.6388 162.287 61.5723 162.432C61.5057 162.577 61.4209 162.719 61.3483 162.863C61.2756 163.007 61.1969 163.15 61.1294 163.301C61.0618 163.452 60.978 163.588 60.9054 163.732C60.8327 163.876 60.754 164.019 60.6865 164.169C60.6189 164.32 60.5351 164.456 60.4625 164.6C60.3898 164.744 60.3111 164.887 60.2375 165.037L60.0196 165.469C59.947 165.613 59.8683 165.756 59.7946 165.906L59.5767 166.337C59.5041 166.481 59.4254 166.624 59.3518 166.774L59.1338 167.206C59.0612 167.35 58.9825 167.493 58.9089 167.643L58.6909 168.075C58.6183 168.218 58.5396 168.361 58.466 168.511L58.248 168.943C58.1754 169.087 58.0967 169.23 58.024 169.374L57.8051 169.812C57.7325 169.956 57.6538 170.099 57.5812 170.242C57.5085 170.386 57.4288 170.535 57.3623 170.68L57.1383 171.111C57.0647 171.261 56.9859 171.404 56.9194 171.549L56.6954 171.98C56.6218 172.13 56.544 172.267 56.4765 172.417C56.4089 172.568 56.3251 172.704 56.2525 172.848C56.1798 172.992 56.1011 173.135 56.0336 173.286C55.966 173.437 55.8822 173.573 55.8096 173.717C55.7369 173.861 55.6582 174.004 55.5846 174.154L55.3667 174.585C55.2941 174.729 55.2154 174.872 55.1417 175.022L54.9238 175.454C54.8512 175.598 54.7725 175.741 54.6989 175.891L54.4809 176.323C54.4083 176.466 54.3296 176.609 54.256 176.759L54.038 177.191L53.814 177.622L53.5951 178.06C53.5225 178.204 53.4438 178.347 53.3702 178.497C53.2966 178.647 53.2188 178.783 53.1522 178.928L52.9283 179.359C52.8546 179.509 52.7759 179.652 52.7094 179.797C52.6428 179.942 52.558 180.084 52.4854 180.228C52.4127 180.372 52.333 180.521 52.2665 180.665C52.1999 180.81 52.1151 180.952 52.0425 181.096C51.9698 181.24 51.8902 181.389 51.8236 181.534C51.757 181.679 51.6722 181.821 51.5996 181.965C51.5269 182.109 51.4482 182.252 51.3746 182.402L51.1567 182.833C51.084 182.977 51.0053 183.12 50.9317 183.27L50.7138 183.702C50.6412 183.846 50.5625 183.989 50.4888 184.139L50.2709 184.571C50.1983 184.714 50.1196 184.857 50.046 185.007L49.828 185.439C49.7554 185.583 49.6767 185.726 49.6031 185.876L49.3851 186.308C49.3125 186.452 49.2338 186.595 49.1602 186.745C49.0866 186.895 49.0088 187.031 48.9422 187.176C48.8757 187.321 48.7909 187.463 48.7173 187.613C48.6437 187.763 48.5659 187.9 48.4994 188.045L48.2754 188.476C48.2017 188.626 48.123 188.769 48.0565 188.913C47.9899 189.058 47.9051 189.2 47.8325 189.344C47.7598 189.488 47.6802 189.637 47.6136 189.782C47.547 189.927 47.4622 190.069 47.3896 190.213C47.3169 190.357 47.2373 190.506 47.1646 190.65L46.9467 191.081C46.8731 191.231 46.7944 191.374 46.7217 191.518L46.5038 191.95C46.4312 192.094 46.3524 192.237 46.2788 192.387L46.0609 192.819C45.9883 192.962 45.9096 193.105 45.8359 193.255L45.618 193.687C45.5454 193.831 45.4667 193.974 45.3931 194.124L45.1751 194.556C45.1025 194.7 45.0238 194.843 44.9502 194.993C44.8766 195.143 44.7988 195.279 44.7322 195.424C44.6657 195.569 44.5809 195.711 44.5073 195.861C44.4337 196.011 44.3559 196.148 44.2893 196.293C44.2228 196.438 44.138 196.58 44.0644 196.73C43.9908 196.88 43.913 197.017 43.8465 197.161C43.7799 197.306 43.6951 197.448 43.6215 197.598C43.5479 197.748 43.4701 197.885 43.4036 198.03C43.337 198.175 43.2522 198.317 43.1796 198.461C43.1069 198.605 43.0273 198.754 42.9546 198.898L42.7367 199.329C42.6631 199.479 42.5844 199.622 42.5117 199.766L42.2938 200.198C42.2202 200.348 42.1415 200.491 42.0688 200.635L41.8509 201.067C41.7783 201.21 41.6995 201.353 41.6259 201.503L41.408 201.935C41.3354 202.079 41.2567 202.222 41.183 202.372L40.9651 202.804C40.8925 202.948 40.8138 203.091 40.7402 203.241C40.6665 203.391 40.5888 203.527 40.5222 203.672C40.4556 203.817 40.3709 203.959 40.2973 204.109C40.2237 204.259 40.1459 204.396 40.0793 204.541C40.0128 204.686 39.928 204.828 39.8544 204.978C39.7808 205.128 39.703 205.265 39.6364 205.409C39.5699 205.554 39.4851 205.696 39.4115 205.846C39.3379 205.996 39.2601 206.133 39.1936 206.278C39.127 206.423 39.0422 206.565 38.9696 206.709C38.8969 206.853 38.8172 207.002 38.7446 207.146L38.5257 207.583L38.3017 208.014L38.0838 208.446C38.0102 208.596 37.9315 208.739 37.8588 208.883L37.6409 209.315C37.5673 209.465 37.4895 209.601 37.4159 209.751L37.198 210.183C37.1244 210.333 37.0466 210.47 36.973 210.62L36.7551 211.052C36.6825 211.196 36.6038 211.339 36.5301 211.489C36.4565 211.639 36.3788 211.775 36.3122 211.92C36.2456 212.065 36.1609 212.207 36.0873 212.357C36.0136 212.507 35.9359 212.644 35.8693 212.789C35.8027 212.934 35.718 213.076 35.6444 213.226C35.5708 213.376 35.493 213.513 35.4264 213.657C35.3599 213.802 35.2751 213.944 35.2015 214.094C35.1279 214.244 35.0501 214.381 34.9835 214.526C34.917 214.671 34.8322 214.813 34.7586 214.963C34.685 215.113 34.6072 215.25 34.5407 215.395C34.4741 215.54 34.3893 215.682 34.3157 215.831L34.0917 216.262L33.8738 216.694C33.8002 216.844 33.7215 216.987 33.6488 217.131L33.4309 217.563C33.3573 217.713 33.2786 217.856 33.2059 217.999L32.988 218.431C32.9144 218.581 32.8357 218.724 32.763 218.868L32.5451 219.3C32.4715 219.45 32.3937 219.587 32.3201 219.737C32.2465 219.887 32.1688 220.023 32.1022 220.168C32.0356 220.313 31.9509 220.455 31.8772 220.605C31.8036 220.755 31.7259 220.892 31.6593 221.037C31.5927 221.182 31.508 221.324 31.4344 221.474C31.3608 221.624 31.283 221.761 31.2164 221.905C31.1499 222.05 31.0651 222.192 30.9915 222.342C30.9179 222.492 30.8401 222.629 30.7735 222.774C30.707 222.919 30.6222 223.061 30.5486 223.211L30.3246 223.642L30.1067 224.073C30.033 224.223 29.9543 224.366 29.8817 224.51L29.6638 224.942C29.5902 225.092 29.5114 225.235 29.4388 225.379L29.2209 225.811C29.1473 225.961 29.0686 226.104 28.9959 226.247L28.777 226.685L28.553 227.116L28.3351 227.548C28.2615 227.698 28.1828 227.841 28.1101 227.985C28.0375 228.129 27.9588 228.271 27.8922 228.416C27.8256 228.561 27.7399 228.709 27.6672 228.853C27.5946 228.997 27.5159 229.14 27.4493 229.285C27.3827 229.43 27.298 229.572 27.2243 229.722C24.2585 235.52 23.3758 242.161 24.724 248.533C26.0722 254.905 29.5695 260.619 34.6297 264.719C39.6899 268.819 46.0056 271.055 52.5183 271.053C59.031 271.05 65.345 268.809 70.402 264.705L70.7925 264.401L71.177 264.095L71.5605 263.795L71.9449 263.489L72.3284 263.19L72.7129 262.884L73.0973 262.578L73.4808 262.279L73.8652 261.973L74.2487 261.673L74.6332 261.367L75.0167 261.068L75.4011 260.762L75.7856 260.456C75.9131 260.358 76.0467 260.261 76.1691 260.156C76.2915 260.052 76.4311 259.956 76.5535 259.851L76.937 259.551C77.0655 259.447 77.199 259.35 77.3214 259.245C77.4439 259.14 77.5835 259.044 77.712 258.94C77.8404 258.837 77.967 258.745 78.0894 258.64L78.4799 258.335L78.8634 258.035L79.2478 257.73L79.6323 257.424L80.0158 257.124L80.4002 256.818L80.7837 256.519L81.1682 256.213L81.5517 255.913L81.9361 255.608L82.3206 255.302L82.704 255.002C82.8325 254.898 82.9661 254.801 83.0885 254.696L83.472 254.397C83.6005 254.293 83.734 254.196 83.8564 254.091L84.247 253.786C84.3745 253.688 84.502 253.59 84.6244 253.485L85.0149 253.181L85.3984 252.881L85.7828 252.575L86.1663 252.276L86.5508 251.97L86.9352 251.664L87.3187 251.364L87.7031 251.059L88.0866 250.759L88.4711 250.453L88.8555 250.147L89.239 249.848L89.6235 249.542L90.007 249.242L90.3914 248.937C90.5189 248.839 90.6535 248.736 90.7759 248.631C90.8983 248.526 91.0369 248.436 91.1594 248.331C91.2818 248.226 91.4214 248.13 91.5438 248.025C91.6662 247.92 91.8058 247.825 91.9273 247.726L92.3178 247.421L92.7013 247.121L93.0857 246.815L93.4702 246.51L93.8537 246.21L94.2381 245.904L94.6216 245.605L95.0061 245.299L95.3905 244.993L95.774 244.693L96.1585 244.388L96.5419 244.088L96.9264 243.782L97.3099 243.483C97.4384 243.379 97.5719 243.282 97.6943 243.177C97.8167 243.072 97.9564 242.976 98.0788 242.871C98.2012 242.766 98.3399 242.676 98.4623 242.571C98.5847 242.466 98.7243 242.371 98.8467 242.266C98.9691 242.161 99.1088 242.065 99.2363 241.967L99.6207 241.661L100.005 241.355L100.389 241.056L100.773 240.75L101.157 240.45L101.541 240.145L101.926 239.839L102.309 239.539L102.693 239.233L103.077 238.934L103.461 238.628L103.845 238.328L104.229 238.022C104.358 237.919 104.491 237.822 104.614 237.717C104.736 237.612 104.875 237.522 104.997 237.417C105.12 237.312 105.259 237.216 105.382 237.111L105.771 236.813C105.9 236.709 106.027 236.611 106.15 236.506C106.272 236.401 106.412 236.305 106.54 236.201L106.924 235.901L107.308 235.596L107.692 235.296L108.076 234.99L108.46 234.691L108.844 234.385L109.228 234.079L109.612 233.779L109.996 233.474L110.38 233.174L110.764 232.868L111.149 232.562L111.532 232.263L111.917 231.957L112.3 231.657C112.429 231.553 112.562 231.456 112.685 231.352L113.068 231.052L113.459 230.747L113.843 230.441L114.227 230.142L114.611 229.836L114.994 229.536L115.379 229.23L115.763 228.925L116.147 228.625L116.531 228.319L116.915 228.02L117.299 227.714L117.684 227.408L118.067 227.108L118.452 226.803L118.835 226.503C118.964 226.399 119.097 226.302 119.22 226.197L119.603 225.898C119.732 225.794 119.865 225.697 119.988 225.592L120.378 225.287L120.762 224.987L121.146 224.682L121.529 224.382L121.914 224.076L122.298 223.77L122.682 223.471L123.066 223.165L123.45 222.865L123.834 222.559L124.219 222.254L124.602 221.954L124.987 221.648L125.37 221.349L125.755 221.043L126.138 220.743C126.267 220.639 126.4 220.542 126.523 220.437C126.645 220.333 126.785 220.237 126.907 220.132C127.029 220.027 127.168 219.937 127.29 219.832L127.681 219.527L128.064 219.228L128.449 218.922L128.833 218.616L129.217 218.316L129.601 218.011L129.985 217.711L130.369 217.405L130.753 217.105L131.137 216.8L131.522 216.494L131.905 216.194L132.29 215.889L132.673 215.589L133.058 215.283C133.186 215.179 133.32 215.082 133.442 214.977C133.564 214.872 133.703 214.783 133.825 214.678C133.948 214.573 134.087 214.477 134.21 214.372L134.593 214.072L134.984 213.767L135.368 213.462L135.752 213.162L136.136 212.856L136.52 212.557L136.904 212.251L137.288 211.951L137.672 211.645L138.057 211.34L138.44 211.04L138.825 210.734L139.208 210.435L139.592 210.129L139.977 209.823L140.36 209.523L140.745 209.218L141.128 208.918C141.257 208.814 141.39 208.717 141.513 208.612L141.902 208.313C142.025 208.209 142.158 208.112 142.287 208.008L142.671 207.702L143.055 207.402L143.439 207.096L143.823 206.797L144.207 206.491L144.592 206.185L144.975 205.886L145.36 205.58L145.743 205.28L146.127 204.974L146.511 204.675L146.895 204.369L147.28 204.063L147.663 203.764C147.792 203.66 147.925 203.563 148.048 203.458L148.431 203.158C148.56 203.054 148.693 202.957 148.816 202.852L149.206 202.548L149.59 202.248L149.974 201.942L150.358 201.642L150.742 201.337L151.127 201.031L151.51 200.731L151.895 200.426L152.278 200.126L152.662 199.82L153.046 199.52L153.43 199.215L153.847 198.902L154.231 198.602L154.615 198.296L154.999 197.996C155.127 197.893 155.261 197.796 155.383 197.691C155.505 197.586 155.645 197.49 155.767 197.385C155.89 197.28 156.029 197.19 156.157 197.086C156.285 196.982 156.413 196.884 156.535 196.78C156.658 196.675 156.797 196.579 156.925 196.481L157.309 196.175L157.694 195.869L158.077 195.57L158.462 195.264L158.81 194.99C158.86 194.955 158.908 194.917 158.953 194.876L159.15 194.727L159.556 194.406L159.939 194.106L160.324 193.8L160.708 193.494L161.092 193.195L161.476 192.889L161.86 192.589L162.244 192.284C162.373 192.18 162.506 192.083 162.629 191.978C162.751 191.873 162.89 191.783 163.012 191.678C163.135 191.573 163.274 191.477 163.397 191.372L163.786 191.074C163.915 190.97 164.042 190.872 164.165 190.767C164.287 190.662 164.427 190.566 164.554 190.468L164.939 190.162L165.323 189.857L165.706 189.557L166.091 189.251L166.475 188.946L166.859 188.646L167.243 188.34L167.627 188.04L168.011 187.735L168.395 187.435L168.779 187.129L169.164 186.823C169.291 186.726 169.425 186.629 169.547 186.524L169.932 186.218L170.315 185.918C170.444 185.814 170.577 185.718 170.7 185.613L171.089 185.314L171.474 185.008L171.858 184.702L172.241 184.403L172.626 184.097L173.009 183.797L173.394 183.492L173.778 183.186L174.162 182.886L174.546 182.58L174.93 182.281L175.314 181.975L175.698 181.675L176.082 181.369L176.467 181.064L176.85 180.764C176.979 180.66 177.112 180.563 177.235 180.458L177.618 180.159C177.746 180.055 177.88 179.958 178.002 179.853L178.393 179.548L178.742 179.23L179.126 178.925L179.51 178.625L179.894 178.319L180.278 178.02L180.662 177.714L181.047 177.408L181.43 177.108L181.815 176.803L182.198 176.503L182.583 176.197L182.967 175.891L183.351 175.592L183.735 175.286L184.119 174.986C184.247 174.882 184.381 174.786 184.503 174.681C184.625 174.576 184.765 174.48 184.887 174.375C185.01 174.27 185.149 174.18 185.277 174.076L185.661 173.77C194.887 166.467 201.786 156.636 205.518 145.477C209.25 134.319 209.652 122.315 206.676 110.931C203.7 99.5477 197.475 89.2766 188.76 81.3718C180.044 73.467 169.216 68.2705 157.597 66.4164Z"/>
</mask>
<path d="M157.597 66.4164C145.001 64.4129 132.093 66.4336 120.712 72.191C109.331 77.9484 100.056 87.1491 94.2072 98.4834C94.1285 98.6264 94.0559 98.7703 93.9832 98.9142C93.9106 99.0581 93.837 99.2081 93.7583 99.3511L93.5393 99.7889C93.4606 99.9318 93.387 100.082 93.3144 100.226C93.2417 100.37 93.1681 100.52 93.0894 100.663L92.8705 101.1C92.7918 101.243 92.7182 101.393 92.6456 101.537C92.5729 101.681 92.4993 101.831 92.4206 101.974L92.2017 102.412C92.123 102.555 92.0504 102.699 91.9777 102.843C91.9051 102.987 91.8315 103.137 91.7528 103.279L91.5339 103.717C91.4552 103.86 91.3816 104.01 91.3089 104.154C91.2363 104.298 91.1627 104.448 91.0839 104.591L90.8651 105.029C90.7863 105.172 90.7137 105.316 90.6401 105.466C90.5665 105.616 90.4948 105.753 90.4151 105.902L90.1962 106.34C90.1175 106.483 90.0449 106.627 89.9722 106.771C89.8996 106.915 89.826 107.065 89.7473 107.208L89.5284 107.646C89.4487 107.795 89.3761 107.939 89.3034 108.083L89.0845 108.52C89.0058 108.663 88.9322 108.813 88.8596 108.957C88.7869 109.101 88.7073 109.25 88.6346 109.394L88.4157 109.832C88.337 109.975 88.2644 110.119 88.1908 110.269C88.1171 110.419 88.0455 110.556 87.9668 110.699L87.7479 111.137C87.6692 111.28 87.5956 111.43 87.5229 111.574C87.4503 111.718 87.3767 111.868 87.298 112.011L87.0791 112.449C87.0003 112.592 86.9267 112.742 86.8541 112.886C86.7814 113.029 86.7088 113.173 86.6291 113.322L86.4102 113.76C86.3315 113.903 86.2589 114.047 86.1853 114.197C86.1117 114.347 86.04 114.485 85.9613 114.628L85.7424 115.066C85.6637 115.209 85.5901 115.359 85.5174 115.502C85.4448 115.646 85.3712 115.796 85.2925 115.939L85.0736 116.377C84.9949 116.52 84.9213 116.67 84.8486 116.814C84.776 116.958 84.7033 117.102 84.6237 117.251L84.4048 117.689C84.326 117.832 84.2534 117.975 84.1808 118.119C84.1081 118.263 84.0345 118.413 83.9558 118.556L83.7369 118.994C83.6582 119.137 83.5846 119.287 83.5119 119.431C83.4393 119.575 83.3657 119.725 83.287 119.868L83.0681 120.306C82.9894 120.448 82.9167 120.592 82.8431 120.742C82.7695 120.892 82.6978 121.03 82.6182 121.179L82.4002 121.611C82.3206 121.76 82.2479 121.904 82.1753 122.048C82.1026 122.192 82.029 122.342 81.9503 122.485L81.7314 122.922C81.6527 123.065 81.5791 123.215 81.5065 123.359C81.4338 123.503 81.3602 123.653 81.2815 123.796L81.0626 124.234C80.9839 124.377 80.9113 124.521 80.8377 124.671C80.764 124.821 80.6924 124.959 80.6127 125.108L80.3948 125.539C80.3151 125.688 80.2424 125.832 80.1698 125.976L79.9509 126.414C79.8722 126.557 79.7986 126.707 79.7259 126.851C79.6533 126.995 79.5797 127.145 79.501 127.288L79.2821 127.725C79.2034 127.868 79.1298 128.018 79.0571 128.162C78.8271 128.592 78.6082 129.03 78.3944 129.475C78.3237 129.607 78.253 129.738 78.1883 129.871C78.1237 130.004 78.037 130.158 77.9694 130.309C77.9019 130.46 77.8181 130.596 77.7454 130.74C77.6728 130.884 77.5941 131.026 77.5275 131.171C77.4609 131.316 77.3752 131.464 77.3025 131.608C77.2299 131.752 77.1512 131.895 77.0785 132.039L76.8596 132.477C76.787 132.621 76.7083 132.764 76.6356 132.908L76.4167 133.345L76.1927 133.776L75.9739 134.214C75.9012 134.358 75.8225 134.501 75.7499 134.645L75.531 135.083C75.4583 135.226 75.3796 135.369 75.307 135.513L75.0881 135.951C75.0154 136.095 74.9367 136.238 74.8641 136.382L74.6452 136.82L74.4212 137.25C74.3485 137.394 74.2698 137.537 74.2023 137.688L73.9783 138.119C73.9057 138.263 73.8269 138.406 73.7594 138.557L73.5354 138.988C73.4628 139.132 73.3841 139.275 73.3165 139.425C73.249 139.576 73.1652 139.712 73.0925 139.856C73.0199 140 72.9412 140.143 72.8676 140.293L72.6496 140.725C72.577 140.869 72.4983 141.012 72.4256 141.156L72.2067 141.593C72.1341 141.737 72.0554 141.88 71.9827 142.024L71.7638 142.462L71.5399 142.893L71.321 143.331L71.097 143.761L70.8781 144.199L70.6541 144.63C70.5805 144.78 70.5027 144.917 70.4352 145.068C70.3676 145.219 70.2838 145.355 70.2112 145.498C70.1385 145.642 70.0598 145.785 69.9923 145.936C69.9247 146.087 69.8409 146.223 69.7683 146.367C69.6956 146.511 69.6169 146.654 69.5494 146.805C69.4818 146.956 69.398 147.092 69.3254 147.236C69.2528 147.38 69.174 147.523 69.1065 147.673C69.039 147.824 68.9552 147.96 68.8825 148.104C68.8099 148.248 68.7312 148.391 68.6576 148.541L68.4396 148.973C68.367 149.117 68.2883 149.26 68.2147 149.41L67.9967 149.841L67.7727 150.272L67.5538 150.71C67.4812 150.854 67.4025 150.997 67.3298 151.141L67.1109 151.579C67.0383 151.722 66.9596 151.865 66.887 152.009L66.6681 152.447C66.5954 152.591 66.5167 152.734 66.4441 152.878L66.2252 153.316L66.0012 153.746C65.9276 153.896 65.8489 154.039 65.7823 154.184L65.5583 154.615C65.4856 154.759 65.4069 154.902 65.3394 155.053L65.1154 155.484C65.0427 155.628 64.964 155.771 64.8965 155.921C64.829 156.072 64.7451 156.208 64.6725 156.352C64.5999 156.496 64.5212 156.639 64.4475 156.789L64.2296 157.221C64.157 157.365 64.0783 157.508 64.0046 157.658L63.7867 158.089C63.7141 158.233 63.6354 158.376 63.5618 158.526L63.3438 158.958C63.2712 159.102 63.1925 159.245 63.1189 159.395L62.9009 159.827L62.6769 160.257L62.458 160.695L62.2341 161.126L62.0152 161.564L61.7912 161.994C61.7176 162.144 61.6388 162.287 61.5723 162.432C61.5057 162.577 61.4209 162.719 61.3483 162.863C61.2756 163.007 61.1969 163.15 61.1294 163.301C61.0618 163.452 60.978 163.588 60.9054 163.732C60.8327 163.876 60.754 164.019 60.6865 164.169C60.6189 164.32 60.5351 164.456 60.4625 164.6C60.3898 164.744 60.3111 164.887 60.2375 165.037L60.0196 165.469C59.947 165.613 59.8683 165.756 59.7946 165.906L59.5767 166.337C59.5041 166.481 59.4254 166.624 59.3518 166.774L59.1338 167.206C59.0612 167.35 58.9825 167.493 58.9089 167.643L58.6909 168.075C58.6183 168.218 58.5396 168.361 58.466 168.511L58.248 168.943C58.1754 169.087 58.0967 169.23 58.024 169.374L57.8051 169.812C57.7325 169.956 57.6538 170.099 57.5812 170.242C57.5085 170.386 57.4288 170.535 57.3623 170.68L57.1383 171.111C57.0647 171.261 56.9859 171.404 56.9194 171.549L56.6954 171.98C56.6218 172.13 56.544 172.267 56.4765 172.417C56.4089 172.568 56.3251 172.704 56.2525 172.848C56.1798 172.992 56.1011 173.135 56.0336 173.286C55.966 173.437 55.8822 173.573 55.8096 173.717C55.7369 173.861 55.6582 174.004 55.5846 174.154L55.3667 174.585C55.2941 174.729 55.2154 174.872 55.1417 175.022L54.9238 175.454C54.8512 175.598 54.7725 175.741 54.6989 175.891L54.4809 176.323C54.4083 176.466 54.3296 176.609 54.256 176.759L54.038 177.191L53.814 177.622L53.5951 178.06C53.5225 178.204 53.4438 178.347 53.3702 178.497C53.2966 178.647 53.2188 178.783 53.1522 178.928L52.9283 179.359C52.8546 179.509 52.7759 179.652 52.7094 179.797C52.6428 179.942 52.558 180.084 52.4854 180.228C52.4127 180.372 52.333 180.521 52.2665 180.665C52.1999 180.81 52.1151 180.952 52.0425 181.096C51.9698 181.24 51.8902 181.389 51.8236 181.534C51.757 181.679 51.6722 181.821 51.5996 181.965C51.5269 182.109 51.4482 182.252 51.3746 182.402L51.1567 182.833C51.084 182.977 51.0053 183.12 50.9317 183.27L50.7138 183.702C50.6412 183.846 50.5625 183.989 50.4888 184.139L50.2709 184.571C50.1983 184.714 50.1196 184.857 50.046 185.007L49.828 185.439C49.7554 185.583 49.6767 185.726 49.6031 185.876L49.3851 186.308C49.3125 186.452 49.2338 186.595 49.1602 186.745C49.0866 186.895 49.0088 187.031 48.9422 187.176C48.8757 187.321 48.7909 187.463 48.7173 187.613C48.6437 187.763 48.5659 187.9 48.4994 188.045L48.2754 188.476C48.2017 188.626 48.123 188.769 48.0565 188.913C47.9899 189.058 47.9051 189.2 47.8325 189.344C47.7598 189.488 47.6802 189.637 47.6136 189.782C47.547 189.927 47.4622 190.069 47.3896 190.213C47.3169 190.357 47.2373 190.506 47.1646 190.65L46.9467 191.081C46.8731 191.231 46.7944 191.374 46.7217 191.518L46.5038 191.95C46.4312 192.094 46.3524 192.237 46.2788 192.387L46.0609 192.819C45.9883 192.962 45.9096 193.105 45.8359 193.255L45.618 193.687C45.5454 193.831 45.4667 193.974 45.3931 194.124L45.1751 194.556C45.1025 194.7 45.0238 194.843 44.9502 194.993C44.8766 195.143 44.7988 195.279 44.7322 195.424C44.6657 195.569 44.5809 195.711 44.5073 195.861C44.4337 196.011 44.3559 196.148 44.2893 196.293C44.2228 196.438 44.138 196.58 44.0644 196.73C43.9908 196.88 43.913 197.017 43.8465 197.161C43.7799 197.306 43.6951 197.448 43.6215 197.598C43.5479 197.748 43.4701 197.885 43.4036 198.03C43.337 198.175 43.2522 198.317 43.1796 198.461C43.1069 198.605 43.0273 198.754 42.9546 198.898L42.7367 199.329C42.6631 199.479 42.5844 199.622 42.5117 199.766L42.2938 200.198C42.2202 200.348 42.1415 200.491 42.0688 200.635L41.8509 201.067C41.7783 201.21 41.6995 201.353 41.6259 201.503L41.408 201.935C41.3354 202.079 41.2567 202.222 41.183 202.372L40.9651 202.804C40.8925 202.948 40.8138 203.091 40.7402 203.241C40.6665 203.391 40.5888 203.527 40.5222 203.672C40.4556 203.817 40.3709 203.959 40.2973 204.109C40.2237 204.259 40.1459 204.396 40.0793 204.541C40.0128 204.686 39.928 204.828 39.8544 204.978C39.7808 205.128 39.703 205.265 39.6364 205.409C39.5699 205.554 39.4851 205.696 39.4115 205.846C39.3379 205.996 39.2601 206.133 39.1936 206.278C39.127 206.423 39.0422 206.565 38.9696 206.709C38.8969 206.853 38.8172 207.002 38.7446 207.146L38.5257 207.583L38.3017 208.014L38.0838 208.446C38.0102 208.596 37.9315 208.739 37.8588 208.883L37.6409 209.315C37.5673 209.465 37.4895 209.601 37.4159 209.751L37.198 210.183C37.1244 210.333 37.0466 210.47 36.973 210.62L36.7551 211.052C36.6825 211.196 36.6038 211.339 36.5301 211.489C36.4565 211.639 36.3788 211.775 36.3122 211.92C36.2456 212.065 36.1609 212.207 36.0873 212.357C36.0136 212.507 35.9359 212.644 35.8693 212.789C35.8027 212.934 35.718 213.076 35.6444 213.226C35.5708 213.376 35.493 213.513 35.4264 213.657C35.3599 213.802 35.2751 213.944 35.2015 214.094C35.1279 214.244 35.0501 214.381 34.9835 214.526C34.917 214.671 34.8322 214.813 34.7586 214.963C34.685 215.113 34.6072 215.25 34.5407 215.395C34.4741 215.54 34.3893 215.682 34.3157 215.831L34.0917 216.262L33.8738 216.694C33.8002 216.844 33.7215 216.987 33.6488 217.131L33.4309 217.563C33.3573 217.713 33.2786 217.856 33.2059 217.999L32.988 218.431C32.9144 218.581 32.8357 218.724 32.763 218.868L32.5451 219.3C32.4715 219.45 32.3937 219.587 32.3201 219.737C32.2465 219.887 32.1688 220.023 32.1022 220.168C32.0356 220.313 31.9509 220.455 31.8772 220.605C31.8036 220.755 31.7259 220.892 31.6593 221.037C31.5927 221.182 31.508 221.324 31.4344 221.474C31.3608 221.624 31.283 221.761 31.2164 221.905C31.1499 222.05 31.0651 222.192 30.9915 222.342C30.9179 222.492 30.8401 222.629 30.7735 222.774C30.707 222.919 30.6222 223.061 30.5486 223.211L30.3246 223.642L30.1067 224.073C30.033 224.223 29.9543 224.366 29.8817 224.51L29.6638 224.942C29.5902 225.092 29.5114 225.235 29.4388 225.379L29.2209 225.811C29.1473 225.961 29.0686 226.104 28.9959 226.247L28.777 226.685L28.553 227.116L28.3351 227.548C28.2615 227.698 28.1828 227.841 28.1101 227.985C28.0375 228.129 27.9588 228.271 27.8922 228.416C27.8256 228.561 27.7399 228.709 27.6672 228.853C27.5946 228.997 27.5159 229.14 27.4493 229.285C27.3827 229.43 27.298 229.572 27.2243 229.722C24.2585 235.52 23.3758 242.161 24.724 248.533C26.0722 254.905 29.5695 260.619 34.6297 264.719C39.6899 268.819 46.0056 271.055 52.5183 271.053C59.031 271.05 65.345 268.809 70.402 264.705L70.7925 264.401L71.177 264.095L71.5605 263.795L71.9449 263.489L72.3284 263.19L72.7129 262.884L73.0973 262.578L73.4808 262.279L73.8652 261.973L74.2487 261.673L74.6332 261.367L75.0167 261.068L75.4011 260.762L75.7856 260.456C75.9131 260.358 76.0467 260.261 76.1691 260.156C76.2915 260.052 76.4311 259.956 76.5535 259.851L76.937 259.551C77.0655 259.447 77.199 259.35 77.3214 259.245C77.4439 259.14 77.5835 259.044 77.712 258.94C77.8404 258.837 77.967 258.745 78.0894 258.64L78.4799 258.335L78.8634 258.035L79.2478 257.73L79.6323 257.424L80.0158 257.124L80.4002 256.818L80.7837 256.519L81.1682 256.213L81.5517 255.913L81.9361 255.608L82.3206 255.302L82.704 255.002C82.8325 254.898 82.9661 254.801 83.0885 254.696L83.472 254.397C83.6005 254.293 83.734 254.196 83.8564 254.091L84.247 253.786C84.3745 253.688 84.502 253.59 84.6244 253.485L85.0149 253.181L85.3984 252.881L85.7828 252.575L86.1663 252.276L86.5508 251.97L86.9352 251.664L87.3187 251.364L87.7031 251.059L88.0866 250.759L88.4711 250.453L88.8555 250.147L89.239 249.848L89.6235 249.542L90.007 249.242L90.3914 248.937C90.5189 248.839 90.6535 248.736 90.7759 248.631C90.8983 248.526 91.0369 248.436 91.1594 248.331C91.2818 248.226 91.4214 248.13 91.5438 248.025C91.6662 247.92 91.8058 247.825 91.9273 247.726L92.3178 247.421L92.7013 247.121L93.0857 246.815L93.4702 246.51L93.8537 246.21L94.2381 245.904L94.6216 245.605L95.0061 245.299L95.3905 244.993L95.774 244.693L96.1585 244.388L96.5419 244.088L96.9264 243.782L97.3099 243.483C97.4384 243.379 97.5719 243.282 97.6943 243.177C97.8167 243.072 97.9564 242.976 98.0788 242.871C98.2012 242.766 98.3399 242.676 98.4623 242.571C98.5847 242.466 98.7243 242.371 98.8467 242.266C98.9691 242.161 99.1088 242.065 99.2363 241.967L99.6207 241.661L100.005 241.355L100.389 241.056L100.773 240.75L101.157 240.45L101.541 240.145L101.926 239.839L102.309 239.539L102.693 239.233L103.077 238.934L103.461 238.628L103.845 238.328L104.229 238.022C104.358 237.919 104.491 237.822 104.614 237.717C104.736 237.612 104.875 237.522 104.997 237.417C105.12 237.312 105.259 237.216 105.382 237.111L105.771 236.813C105.9 236.709 106.027 236.611 106.15 236.506C106.272 236.401 106.412 236.305 106.54 236.201L106.924 235.901L107.308 235.596L107.692 235.296L108.076 234.99L108.46 234.691L108.844 234.385L109.228 234.079L109.612 233.779L109.996 233.474L110.38 233.174L110.764 232.868L111.149 232.562L111.532 232.263L111.917 231.957L112.3 231.657C112.429 231.553 112.562 231.456 112.685 231.352L113.068 231.052L113.459 230.747L113.843 230.441L114.227 230.142L114.611 229.836L114.994 229.536L115.379 229.23L115.763 228.925L116.147 228.625L116.531 228.319L116.915 228.02L117.299 227.714L117.684 227.408L118.067 227.108L118.452 226.803L118.835 226.503C118.964 226.399 119.097 226.302 119.22 226.197L119.603 225.898C119.732 225.794 119.865 225.697 119.988 225.592L120.378 225.287L120.762 224.987L121.146 224.682L121.529 224.382L121.914 224.076L122.298 223.77L122.682 223.471L123.066 223.165L123.45 222.865L123.834 222.559L124.219 222.254L124.602 221.954L124.987 221.648L125.37 221.349L125.755 221.043L126.138 220.743C126.267 220.639 126.4 220.542 126.523 220.437C126.645 220.333 126.785 220.237 126.907 220.132C127.029 220.027 127.168 219.937 127.29 219.832L127.681 219.527L128.064 219.228L128.449 218.922L128.833 218.616L129.217 218.316L129.601 218.011L129.985 217.711L130.369 217.405L130.753 217.105L131.137 216.8L131.522 216.494L131.905 216.194L132.29 215.889L132.673 215.589L133.058 215.283C133.186 215.179 133.32 215.082 133.442 214.977C133.564 214.872 133.703 214.783 133.825 214.678C133.948 214.573 134.087 214.477 134.21 214.372L134.593 214.072L134.984 213.767L135.368 213.462L135.752 213.162L136.136 212.856L136.52 212.557L136.904 212.251L137.288 211.951L137.672 211.645L138.057 211.34L138.44 211.04L138.825 210.734L139.208 210.435L139.592 210.129L139.977 209.823L140.36 209.523L140.745 209.218L141.128 208.918C141.257 208.814 141.39 208.717 141.513 208.612L141.902 208.313C142.025 208.209 142.158 208.112 142.287 208.008L142.671 207.702L143.055 207.402L143.439 207.096L143.823 206.797L144.207 206.491L144.592 206.185L144.975 205.886L145.36 205.58L145.743 205.28L146.127 204.974L146.511 204.675L146.895 204.369L147.28 204.063L147.663 203.764C147.792 203.66 147.925 203.563 148.048 203.458L148.431 203.158C148.56 203.054 148.693 202.957 148.816 202.852L149.206 202.548L149.59 202.248L149.974 201.942L150.358 201.642L150.742 201.337L151.127 201.031L151.51 200.731L151.895 200.426L152.278 200.126L152.662 199.82L153.046 199.52L153.43 199.215L153.847 198.902L154.231 198.602L154.615 198.296L154.999 197.996C155.127 197.893 155.261 197.796 155.383 197.691C155.505 197.586 155.645 197.49 155.767 197.385C155.89 197.28 156.029 197.19 156.157 197.086C156.285 196.982 156.413 196.884 156.535 196.78C156.658 196.675 156.797 196.579 156.925 196.481L157.309 196.175L157.694 195.869L158.077 195.57L158.462 195.264L158.81 194.99C158.86 194.955 158.908 194.917 158.953 194.876L159.15 194.727L159.556 194.406L159.939 194.106L160.324 193.8L160.708 193.494L161.092 193.195L161.476 192.889L161.86 192.589L162.244 192.284C162.373 192.18 162.506 192.083 162.629 191.978C162.751 191.873 162.89 191.783 163.012 191.678C163.135 191.573 163.274 191.477 163.397 191.372L163.786 191.074C163.915 190.97 164.042 190.872 164.165 190.767C164.287 190.662 164.427 190.566 164.554 190.468L164.939 190.162L165.323 189.857L165.706 189.557L166.091 189.251L166.475 188.946L166.859 188.646L167.243 188.34L167.627 188.04L168.011 187.735L168.395 187.435L168.779 187.129L169.164 186.823C169.291 186.726 169.425 186.629 169.547 186.524L169.932 186.218L170.315 185.918C170.444 185.814 170.577 185.718 170.7 185.613L171.089 185.314L171.474 185.008L171.858 184.702L172.241 184.403L172.626 184.097L173.009 183.797L173.394 183.492L173.778 183.186L174.162 182.886L174.546 182.58L174.93 182.281L175.314 181.975L175.698 181.675L176.082 181.369L176.467 181.064L176.85 180.764C176.979 180.66 177.112 180.563 177.235 180.458L177.618 180.159C177.746 180.055 177.88 179.958 178.002 179.853L178.393 179.548L178.742 179.23L179.126 178.925L179.51 178.625L179.894 178.319L180.278 178.02L180.662 177.714L181.047 177.408L181.43 177.108L181.815 176.803L182.198 176.503L182.583 176.197L182.967 175.891L183.351 175.592L183.735 175.286L184.119 174.986C184.247 174.882 184.381 174.786 184.503 174.681C184.625 174.576 184.765 174.48 184.887 174.375C185.01 174.27 185.149 174.18 185.277 174.076L185.661 173.77C194.887 166.467 201.786 156.636 205.518 145.477C209.25 134.319 209.652 122.315 206.676 110.931C203.7 99.5477 197.475 89.2766 188.76 81.3718C180.044 73.467 169.216 68.2705 157.597 66.4164Z" fill="url(#paint0_linear_561_1140)" stroke="url(#paint1_linear_561_1140)" stroke-width="2.4" mask="url(#path-2-inside-1_561_1140)"/>
<path d="M242 157L-5 157L-5.00001 234L242 234L242 157Z" fill="url(#paint2_linear_561_1140)"/>
<circle cx="151.5" cy="122.5" r="43.5" fill="#5B27F7"/>
<path d="M151.5 163C173.868 163 192 144.868 192 122.5C192 100.132 173.868 82 151.5 82C129.132 82 111 100.132 111 122.5C111 144.868 129.132 163 151.5 163Z" stroke="#EEF0F4" stroke-width="6.9" stroke-linecap="round" stroke-linejoin="round"/>
<path d="M111 122.5H192" stroke="#EEF0F4" stroke-width="6.9" stroke-linecap="round" stroke-linejoin="round"/>
<path d="M151.5 163C160.446 163 167.7 144.868 167.7 122.5C167.7 100.132 160.446 82 151.5 82C142.553 82 135.3 100.132 135.3 122.5C135.3 144.868 142.553 163 151.5 163Z" stroke="#EEF0F4" stroke-width="6.9" stroke-linecap="round" stroke-linejoin="round"/>
<path d="M122.863 94.4375C126.619 98.2039 131.083 101.191 135.998 103.227C140.912 105.262 146.181 106.307 151.5 106.3C156.82 106.307 162.088 105.262 167.003 103.227C171.917 101.191 176.381 98.2039 180.138 94.4375M180.138 150.562C176.381 146.796 171.917 143.809 167.003 141.773C162.088 139.738 156.82 138.693 151.5 138.7C146.181 138.693 140.912 139.738 135.998 141.773C131.083 143.809 126.619 146.796 122.863 150.562" stroke="#EEF0F4" stroke-width="6.9" stroke-linecap="round" stroke-linejoin="round"/>
</g>
<defs>
<linearGradient id="paint0_linear_561_1140" x1="141.5" y1="112" x2="89.5" y2="261.5" gradientUnits="userSpaceOnUse">
<stop stop-color="#202021"/>
<stop offset="1" stop-color="#202021" stop-opacity="0"/>
</linearGradient>
<linearGradient id="paint1_linear_561_1140" x1="100.799" y1="26.093" x2="236.914" y2="130.422" gradientUnits="userSpaceOnUse">
<stop stop-color="#2C2F31"/>
<stop offset="0.64083" stop-color="#353739" stop-opacity="0"/>
<stop offset="1" stop-color="#353739"/>
</linearGradient>
<linearGradient id="paint2_linear_561_1140" x1="118.5" y1="166.457" x2="118.5" y2="227.887" gradientUnits="userSpaceOnUse">
<stop stop-color="#060606" stop-opacity="0"/>
<stop offset="1" stop-color="#060606"/>
</linearGradient>
<clipPath id="clip0_561_1140">
<rect width="275" height="234" rx="34" fill="white"/>
</clipPath>
</defs>
</svg>
