<svg viewBox="0 0 275 234" fill="none" xmlns="http://www.w3.org/2000/svg">
<g clip-path="url(#clip0_562_2622)">
<path d="M133.883 39.2092L133.883 39.2088C137.212 37.1017 140.84 36.0632 144.78 36.0893C144.781 36.0893 144.783 36.0894 144.784 36.0894L207.908 37.4178C207.909 37.4178 207.911 37.4179 207.912 37.418C210.286 37.5058 212.505 37.964 214.572 38.789C216.638 39.6141 218.562 40.8095 220.344 42.3807C220.345 42.3817 220.347 42.3827 220.348 42.3837L267.033 84.8905C267.034 84.8915 267.035 84.8925 267.036 84.8934C269.911 87.588 271.83 90.8408 272.798 94.6636C273.758 98.4721 273.502 102.216 272.025 105.914L254.76 149.164C245.854 171.474 231.276 189.268 211.012 202.557L211.341 203.059L211.012 202.557C190.746 215.853 169.452 221.631 147.113 219.919L147.09 219.917L147.067 219.917C146.313 219.918 144.903 219.538 142.759 218.682L140.471 217.769C140.189 217.656 139.931 217.526 139.697 217.381C139.367 217.176 139.059 216.922 138.738 216.637C138.635 216.545 138.527 216.447 138.416 216.346C138.197 216.147 137.966 215.936 137.737 215.745C120.928 201.7 109.804 183.123 104.374 159.987L103.789 160.125L104.374 159.987C98.8323 136.397 100.515 113.455 109.421 91.145L126.686 47.8954C128.162 44.1976 130.558 41.3076 133.883 39.2092Z" fill="url(#paint0_linear_562_2622)" stroke="url(#paint1_linear_562_2622)" stroke-width="1.2"/>
<path d="M96.1083 93.6738L108.849 81.8846C110.169 80.6635 110.676 78.7549 110.088 77.0266L103.142 56.6331C102.553 54.9048 101.015 53.7168 99.1953 53.541L81.9074 51.9794C80.5932 51.8725 79.2661 52.011 78.0132 52.4378L30.0537 68.7725C27.6341 69.5966 26.3521 72.2031 27.1904 74.5937L38.9631 109.159C39.7872 111.579 42.3937 112.861 44.7844 112.022L92.7438 95.6877C93.9968 95.2609 95.1183 94.5896 96.1083 93.6738ZM88.3239 73.0837C87.3085 70.1024 88.8897 66.8877 91.871 65.8723C94.8522 64.8569 98.067 66.4381 99.0824 69.4194C100.098 72.4007 98.5165 75.6154 95.5353 76.6308C92.5682 77.6172 89.3246 76.0217 88.3239 73.0837Z" fill="#5B27F7"/>
<path d="M96.1897 66.1622C97.4929 66.8033 98.554 67.9367 99.0401 69.4346C100.056 72.4159 98.4743 75.6306 95.493 76.646C94.024 77.1464 92.4643 77.0266 91.1611 76.3856C89.8578 75.7445 88.7967 74.6111 88.3106 73.1132C87.2952 70.1319 88.8765 66.9172 91.8577 65.9018C93.341 65.3725 94.8864 65.5212 96.1897 66.1622ZM97.5288 63.4399C95.4435 62.4142 93.0753 62.2564 90.8718 63.0069C88.6877 63.7588 86.8897 65.344 85.8702 67.4167C84.8507 69.4894 84.6924 71.8812 85.43 74.0702C86.1805 76.2737 87.751 78.0533 89.8362 79.079C91.9215 80.1046 94.2897 80.2624 96.4932 79.5119C98.6773 78.7601 100.475 77.1748 101.495 75.1021C102.514 73.0294 102.673 70.6376 101.935 68.4487C101.184 66.2451 99.614 64.4655 97.5288 63.4399Z" fill="#7875FF"/>
<path d="M93.8213 71.9378C101.74 66.7529 116.976 64.882 125.521 78.0769" stroke="white" stroke-width="4" stroke-linecap="round"/>
<rect width="304" height="139" transform="matrix(-1 0 0 1 304 83)" fill="url(#paint2_linear_562_2622)"/>
</g>
<defs>
<linearGradient id="paint0_linear_562_2622" x1="194.5" y1="-4.5" x2="169.209" y2="344.515" gradientUnits="userSpaceOnUse">
<stop stop-color="#202021"/>
<stop offset="1" stop-color="#070707"/>
</linearGradient>
<linearGradient id="paint1_linear_562_2622" x1="189.09" y1="-1.64401" x2="288.44" y2="125.157" gradientUnits="userSpaceOnUse">
<stop stop-color="#2C2F31"/>
<stop offset="0.64083" stop-color="#353739" stop-opacity="0"/>
<stop offset="1" stop-color="#353739"/>
</linearGradient>
<linearGradient id="paint2_linear_562_2622" x1="152" y1="28.1066" x2="152" y2="139" gradientUnits="userSpaceOnUse">
<stop stop-color="#060606" stop-opacity="0"/>
<stop offset="1" stop-color="#060606"/>
</linearGradient>
<clipPath id="clip0_562_2622">
<rect width="275" height="234" fill="white"/>
</clipPath>
</defs>
</svg>
