<svg width="34" height="38" viewBox="0 0 36 40" fill="none" xmlns="http://www.w3.org/2000/svg">
<path d="M18 39.55H17.5C17.3333 39.55 17.1833 39.5167 17.05 39.45C12.6833 38.0833 9.08333 35.3747 6.25 31.324C3.41667 27.2747 2 22.8 2 17.9V8.45C2 7.61667 2.242 6.86667 2.726 6.2C3.20867 5.53333 3.83333 5.05 4.6 4.75L16.6 0.25C17.0667 0.0833333 17.5333 0 18 0C18.4667 0 18.9333 0.0833333 19.4 0.25L31.4 4.75C32.1667 5.05 32.792 5.53333 33.276 6.2C33.7587 6.86667 34 7.61667 34 8.45V17.9C34 22.8 32.5833 27.2747 29.75 31.324C26.9167 35.3747 23.3167 38.0833 18.95 39.45C18.7833 39.5167 18.4667 39.55 18 39.55Z" fill="#5C28F7"/>
</svg>
