<svg width="260" height="67" viewBox="0 0 260 67" fill="none" xmlns="http://www.w3.org/2000/svg">
<path fill-rule="evenodd" clip-rule="evenodd" d="M2.01977 0.48V22.88H10.7238C15.3638 22.88 18.2438 20.384 18.2438 16.32C18.2438 13.248 16.5478 11.424 14.3398 10.624C15.7798 9.984 17.2198 8.32 17.2198 6.24C17.2198 2.56 14.4998 0.48 10.3078 0.48H2.01977ZM10.1478 9.536H5.31577V3.264H10.1158C12.6438 3.264 13.9878 4.352 13.9878 6.4C13.9878 8.48 12.6438 9.536 10.1478 9.536ZM10.2758 19.936H5.31577V12.448H10.2758C13.4118 12.448 14.9478 13.76 14.9478 16.192C14.9478 18.624 13.4118 19.936 10.2758 19.936ZM36.1058 17.632H33.0018C32.5538 19.456 31.0178 20.48 28.6498 20.48C25.8338 20.48 23.8498 18.4 23.5938 15.36H35.9138C35.9458 15.072 35.9778 14.56 35.9778 14.144C35.9778 10.048 33.3218 6.496 28.3298 6.496C23.3698 6.496 20.5538 10.208 20.5538 14.72C20.5538 19.2 23.6578 23.136 28.6498 23.136C32.6178 23.136 35.5298 20.96 36.1058 17.632ZM23.6898 13.088C24.1698 10.4 25.8018 8.992 28.3298 8.992C30.9858 8.992 32.6498 10.624 32.8418 13.088H23.6898ZM51.473 1.696H48.369V6.752H45.073V9.44H48.369V17.6C48.369 20.896 50.449 22.88 53.713 22.88H56.241V20.192H53.969C52.401 20.192 51.473 19.232 51.473 17.504V9.44H56.241V6.752H51.473V1.696ZM65.896 9.44H68.232V6.752H66.28C64.008 6.752 62.728 7.712 61.992 9.856V6.752H58.888V22.88H61.992V15.584C61.992 12.064 62.952 9.44 65.896 9.44ZM85.0045 22.88V6.752H81.9005V15.488C81.9005 18.304 80.1085 20.352 77.5805 20.352C75.3085 20.352 73.8045 18.624 73.8045 16.064V6.752H70.7005V16.672C70.7005 20.512 73.0685 23.136 76.7165 23.136C79.1165 23.136 81.0365 22.048 81.9005 20.032V22.88H85.0045ZM89.1418 0V22.88H92.2458V0H89.1418ZM103.941 22.304L109.605 6.752H106.405L102.149 18.848L97.9248 6.752H94.7248L100.709 23.04L98.5328 29.408H101.509L103.941 22.304ZM119.486 6.752V29.408H122.59V20.608C123.518 22.144 125.438 23.136 127.582 23.136C132.478 23.136 135.39 19.616 135.39 14.816C135.39 10.016 132.606 6.496 127.742 6.496C125.502 6.496 123.55 7.552 122.59 9.152V6.752H119.486ZM132.254 14.816C132.254 18.176 130.27 20.416 127.294 20.416C124.286 20.416 122.334 18.176 122.334 14.816C122.334 11.456 124.286 9.216 127.294 9.216C130.27 9.216 132.254 11.456 132.254 14.816ZM145.427 9.44H147.763V6.752H145.811C143.539 6.752 142.259 7.712 141.523 9.856V6.752H138.419V22.88H141.523V15.584C141.523 12.064 142.483 9.44 145.427 9.44ZM148.71 14.816C148.71 19.648 152.198 23.136 157.03 23.136C161.862 23.136 165.318 19.648 165.318 14.816C165.318 9.984 161.862 6.496 157.03 6.496C152.198 6.496 148.71 9.984 148.71 14.816ZM162.15 14.816C162.15 18.112 160.07 20.416 157.03 20.416C153.958 20.416 151.878 18.112 151.878 14.816C151.878 11.52 153.958 9.216 157.03 9.216C160.07 9.216 162.15 11.52 162.15 14.816ZM173.098 1.696H169.994V6.752H166.698V9.44H169.994V17.6C169.994 20.896 172.074 22.88 175.338 22.88H177.866V20.192H175.594C174.026 20.192 173.098 19.232 173.098 17.504V9.44H177.866V6.752H173.098V1.696ZM194.762 17.632H191.658C191.21 19.456 189.674 20.48 187.306 20.48C184.49 20.48 182.506 18.4 182.25 15.36H194.57C194.602 15.072 194.634 14.56 194.634 14.144C194.634 10.048 191.978 6.496 186.986 6.496C182.026 6.496 179.21 10.208 179.21 14.72C179.21 19.2 182.314 23.136 187.306 23.136C191.274 23.136 194.186 20.96 194.762 17.632ZM182.346 13.088C182.826 10.4 184.458 8.992 186.986 8.992C189.642 8.992 191.306 10.624 191.498 13.088H182.346ZM196.866 14.816C196.866 19.264 199.778 23.136 204.866 23.136C208.962 23.136 211.842 20.832 212.354 17.44H209.282C208.77 19.264 207.138 20.416 204.93 20.416C201.73 20.416 200.098 17.92 200.098 14.816C200.098 11.712 201.698 9.216 204.93 9.216C207.106 9.216 208.962 10.56 209.25 12.384H212.354C211.906 8.736 208.642 6.496 204.866 6.496C199.778 6.496 196.866 10.368 196.866 14.816ZM220.036 1.696H216.932V6.752H213.636V9.44H216.932V17.6C216.932 20.896 219.012 22.88 222.276 22.88H224.804V20.192H222.532C220.964 20.192 220.036 19.232 220.036 17.504V9.44H224.804V6.752H220.036V1.696ZM241.7 17.632H238.596C238.148 19.456 236.612 20.48 234.244 20.48C231.428 20.48 229.444 18.4 229.188 15.36H241.508C241.54 15.072 241.572 14.56 241.572 14.144C241.572 10.048 238.916 6.496 233.924 6.496C228.964 6.496 226.148 10.208 226.148 14.72C226.148 19.2 229.252 23.136 234.244 23.136C238.212 23.136 241.124 20.96 241.7 17.632ZM229.284 13.088C229.764 10.4 231.396 8.992 233.924 8.992C236.58 8.992 238.244 10.624 238.436 13.088H229.284ZM243.804 14.816C243.804 19.616 246.588 23.136 251.548 23.136C253.692 23.136 255.676 22.08 256.636 20.48V22.88H259.74V0H256.636V9.12C255.676 7.552 253.724 6.496 251.516 6.496C246.588 6.496 243.804 10.016 243.804 14.816ZM256.86 14.816C256.86 18.176 254.908 20.416 251.9 20.416C248.924 20.416 246.972 18.176 246.972 14.816C246.972 11.456 248.924 9.216 251.9 9.216C254.908 9.216 256.86 11.456 256.86 14.816ZM0.259766 48.752L5.25177 64.88H8.13177L11.7798 52.848L15.4598 64.88H18.3398L23.3318 48.752H20.1958L16.8998 60.752L13.2838 48.752H10.3398L6.69177 60.752L3.36377 48.752H0.259766ZM29.0895 42H25.6335V45.904H29.0895V42ZM25.8255 48.752V64.88H28.9295V48.752H25.8255ZM37.8168 43.696H34.7128V48.752H31.4168V51.44H34.7128V59.6C34.7128 62.896 36.7928 64.88 40.0568 64.88H42.5848V62.192H40.3128C38.7448 62.192 37.8168 61.232 37.8168 59.504V51.44H42.5848V48.752H37.8168V43.696ZM45.798 42V64.88H48.902V56.144C48.902 53.328 50.694 51.28 53.222 51.28C55.494 51.28 56.998 53.008 56.998 55.568V64.88H60.102V54.96C60.102 51.12 57.734 48.496 54.086 48.496C51.686 48.496 49.766 49.584 48.902 51.6V42H45.798ZM85.7545 64.88V48.752H82.6505V57.488C82.6505 60.304 80.8585 62.352 78.3305 62.352C76.0585 62.352 74.5545 60.624 74.5545 58.064V48.752H71.4505V58.672C71.4505 62.512 73.8185 65.136 77.4665 65.136C79.8665 65.136 81.7865 64.048 82.6505 62.032V64.88H85.7545ZM88.8678 59.632C89.0918 63.024 91.6198 65.136 95.3958 65.136C99.0438 65.136 101.444 63.248 101.444 60.304C101.444 56.0673 98.39 55.6267 95.7981 55.2527C93.8874 54.9769 92.2278 54.7375 92.2278 53.04C92.2278 51.792 93.3478 50.96 95.0118 50.96C96.3878 50.96 98.1798 51.696 98.4038 53.552H101.316C101.156 50.512 98.6598 48.496 95.0118 48.496C91.6518 48.496 89.2838 50.352 89.2838 53.136C89.2838 56.9807 92.1418 57.4478 94.6636 57.8598C96.6545 58.1852 98.4358 58.4762 98.4358 60.368C98.4358 61.552 97.2518 62.544 95.3958 62.544C93.3158 62.544 91.9718 61.488 91.7798 59.632H88.8678ZM121.897 66.97H122.169C122.423 66.97 122.596 66.9519 122.687 66.9156C125.066 66.1709 127.027 64.695 128.571 62.4879C130.115 60.2815 130.887 57.8433 130.887 55.1734V50.0243C130.887 49.5702 130.756 49.1615 130.493 48.7983C130.229 48.435 129.888 48.1717 129.47 48.0082L122.932 45.5563C122.678 45.4654 122.423 45.42 122.169 45.42C121.915 45.42 121.66 45.4654 121.406 45.5563L114.868 48.0082C114.45 48.1717 114.109 48.435 113.846 48.7983C113.583 49.1615 113.451 49.5702 113.451 50.0243V55.1734C113.451 57.8433 114.223 60.2815 115.767 62.4879C117.31 64.695 119.272 66.1709 121.651 66.9156C121.724 66.9519 121.806 66.97 121.897 66.97Z" fill="url(#paint0_linear_8933_33073)"/>
<defs>
<linearGradient id="paint0_linear_8933_33073" x1="14.5995" y1="71.7283" x2="43.7053" y2="-47.9552" gradientUnits="userSpaceOnUse">
<stop stop-color="#4610F9"/>
<stop offset="1" stop-color="#CFA5ED"/>
</linearGradient>
</defs>
</svg>
