<svg width="33" height="32" viewBox="0 0 33 32" fill="none" xmlns="http://www.w3.org/2000/svg">
<g clip-path="url(#clip0_8933_33100)">
<path d="M32.4215 9.60039C32.4215 9.60039 32.109 7.39414 31.1465 6.42539C29.9277 5.15039 28.5652 5.14414 27.9402 5.06914C23.4652 4.74414 16.7465 4.74414 16.7465 4.74414H16.734C16.734 4.74414 10.0152 4.74414 5.54023 5.06914C4.91523 5.14414 3.55273 5.15039 2.33398 6.42539C1.37148 7.39414 1.06523 9.60039 1.06523 9.60039C1.06523 9.60039 0.740234 12.1941 0.740234 14.7816V17.2066C0.740234 19.7941 1.05898 22.3879 1.05898 22.3879C1.05898 22.3879 1.37148 24.5941 2.32773 25.5629C3.54648 26.8379 5.14648 26.7941 5.85898 26.9316C8.42148 27.1754 16.7402 27.2504 16.7402 27.2504C16.7402 27.2504 23.4652 27.2379 27.9402 26.9191C28.5652 26.8441 29.9277 26.8379 31.1465 25.5629C32.109 24.5941 32.4215 22.3879 32.4215 22.3879C32.4215 22.3879 32.7402 19.8004 32.7402 17.2066V14.7816C32.7402 12.1941 32.4215 9.60039 32.4215 9.60039ZM13.434 20.1504V11.1566L22.0777 15.6691L13.434 20.1504Z" fill="white"/>
</g>
<defs>
<clipPath id="clip0_8933_33100">
<rect width="32" height="32" fill="white" transform="translate(0.740234)"/>
</clipPath>
</defs>
</svg>
